<svg width="634" height="666" viewBox="0 0 634 666" fill="none" xmlns="http://www.w3.org/2000/svg">
<path fill-rule="evenodd" clip-rule="evenodd" d="M318.315 0L331.469 273.593L415.651 31.5685L512.988 63.1369L363.037 292.008L573.494 147.32L634 231.502L378.822 328.838L634 334.1V436.697L368.299 363.037L573.494 518.249L512.988 602.432L341.992 389.344L415.651 634L318.315 665.568L305.162 391.975L218.349 634L121.012 602.432L270.963 373.56L60.5062 518.249L0 436.697L257.809 339.361L0 334.1V231.502L265.701 302.531L60.5062 147.32L121.012 63.1369L294.639 278.855L218.349 31.5685L318.315 0Z" fill="#1100FF"/>
</svg>
