<svg version="1.1" id="Logo" xmlns="http://www.w3.org/2000/svg" xmlns:xlink="http://www.w3.org/1999/xlink" x="0px" y="0px" viewBox="0 0 317.3 70" style="enable-background:new 0 0 317.3 70;" xml:space="preserve">
 <style type="text/css">
  .st0{fill:#201E5A;}
	.st1{fill:#F15852;}
 </style>
 <g id="Group_7">
  <g id="Group_5" transform="translate(42.729 7.225)">
   <path id="Path_10" class="st0" d="M71.5,30.2c1.6,2,2.4,4.4,2.2,6.9c0.2,3.3-1.3,6.5-3.8,8.5c-3.3,2.2-7.1,3.2-11,3H41.1V6.9h15.3
			c3.7-0.2,7.4,0.8,10.5,2.9c2.5,2,3.9,5,3.7,8.2c0.1,2-0.4,3.9-1.4,5.6c-0.9,1.5-2.4,2.7-4,3.3v0.2C67.6,27.3,69.8,28.4,71.5,30.2z
			 M62,14.1c-1.8-1.1-3.9-1.6-6.1-1.5h-8.3v12h8.3c2.1,0.2,4.3-0.3,6.1-1.5c1.3-1.1,2-2.8,1.9-4.6C64,16.8,63.3,15.2,62,14.1
			L62,14.1z M64.9,41.4c1.4-1.2,2.2-3,2-4.9c0.2-1.9-0.6-3.7-2-4.9c-2-1.2-4.3-1.7-6.7-1.5H47.6V43h10.6
			C60.5,43.2,62.9,42.6,64.9,41.4L64.9,41.4z">
   </path>
   <path id="Path_11" class="st0" d="M105.8,36.6H83.4c0.1,2.2,1.1,4.2,2.6,5.7c1.7,1.4,3.8,2,5.9,1.9c1.7,0.1,3.5-0.3,5-1.2
			c1.2-0.6,2.1-1.7,2.5-3.1h6c-0.6,2.7-2.2,5.1-4.5,6.7c-2.7,1.8-5.8,2.7-9,2.6c-2.7,0.1-5.4-0.6-7.7-1.8c-2.2-1.2-4-3-5.2-5.1
			c-2.5-4.8-2.5-10.4,0-15.2c1.2-2.2,3-4,5.1-5.2c2.3-1.3,4.9-1.9,7.6-1.9c2.6,0,5.1,0.6,7.4,1.8c2.1,1.2,3.9,3,5,5.1
			c1.2,2.3,1.8,4.9,1.8,7.6C105.9,35.2,105.9,35.9,105.8,36.6z M86.2,26.8c-1.5,1.4-2.5,3.3-2.7,5.3h16.2c-0.2-2-1.1-3.9-2.6-5.3
			c-1.5-1.2-3.4-1.9-5.4-1.8C89.7,24.9,87.7,25.6,86.2,26.8L86.2,26.8z">
   </path>
   <path id="Path_12" class="st0" d="M139,20.7v27.9h-5.7l-0.4-4.2h-0.2c-0.9,1.5-2.2,2.8-3.8,3.5c-1.8,0.9-3.7,1.3-5.7,1.3
			c-2.5,0-4.9-0.6-7-1.9c-2.1-1.3-3.8-3.1-5-5.3c-2.4-4.7-2.4-10.2,0-14.9c1.1-2.2,2.9-4,5-5.3c2.1-1.3,4.5-1.9,7-1.9
			c2,0,3.9,0.4,5.7,1.3c1.6,0.8,2.9,2,3.8,3.5h0.2l0.4-4.2H139z M118.3,41.1c3.4,3.4,9,3.4,12.4,0c3.2-3.7,3.2-9.2,0-12.9
			c-3.4-3.4-9-3.4-12.4,0C115.1,31.9,115.1,37.4,118.3,41.1z">
   </path>
   <path id="Path_13" class="st0" d="M185.8,23.1c2,2.4,3,5.4,2.8,8.5v17h-6.2V33.3c0.1-2-0.4-4-1.5-5.7c-1.1-1.3-2.7-2-4.4-1.9
			c-1.9,0-3.6,0.7-4.9,2.1c-1.4,1.6-2,3.6-1.9,5.7v15.2h-6.2V33.3c0.1-2-0.4-4-1.5-5.7c-1.1-1.3-2.7-2-4.3-1.9
			c-1.9-0.1-3.7,0.7-4.9,2.1c-1.3,1.6-2,3.6-1.9,5.7v15.2h-6.2V20.7h5.7l0.4,4.4h0.2c0.7-1.6,1.9-2.9,3.4-3.7
			c1.6-0.9,3.4-1.4,5.3-1.3c1.9,0,3.8,0.5,5.4,1.4c1.6,1,2.8,2.4,3.5,4.1h0.2c0.8-1.7,2.2-3.1,3.9-4.1c1.8-1,3.8-1.5,5.8-1.5
			C181.1,19.9,183.8,21,185.8,23.1z">
   </path>
   <path id="Path_14" class="st0" d="M220.6,36.6h-22.4c0.1,2.2,1.1,4.2,2.6,5.7c1.7,1.4,3.8,2,5.9,1.9c1.7,0.1,3.5-0.3,5-1.2
			c1.2-0.6,2.1-1.7,2.5-3.1h5.9c-0.6,2.7-2.2,5.1-4.5,6.7c-2.7,1.8-5.8,2.7-9,2.6c-2.7,0.1-5.4-0.6-7.7-1.8c-2.2-1.2-4-3-5.2-5.1
			c-2.5-4.8-2.5-10.4,0-15.2c1.2-2.2,3-4,5.1-5.2c2.3-1.3,4.9-1.9,7.6-1.9c2.6,0,5.1,0.6,7.4,1.8c2.1,1.2,3.9,3,5,5.1
			c1.2,2.3,1.8,4.9,1.8,7.6C220.8,35.2,220.7,35.9,220.6,36.6z M201,26.8c-1.5,1.4-2.5,3.3-2.7,5.3h16.2c-0.2-2-1.1-3.9-2.6-5.3
			c-1.5-1.2-3.4-1.9-5.4-1.8C204.5,24.9,202.5,25.6,201,26.8L201,26.8z">
   </path>
   <path id="Path_15" class="st0" d="M242.1,20.6v5.7c-0.9-0.2-1.8-0.2-2.7-0.2c-2.4-0.1-4.8,0.8-6.4,2.6c-1.7,2.3-2.5,5.2-2.2,8.1
			v11.8h-6.2V20.7h5.7l0.4,5.4h0.2c0.7-1.8,1.9-3.3,3.5-4.4c1.6-1,3.4-1.5,5.3-1.5C240.4,20.1,241.3,20.3,242.1,20.6z">
   </path>
   <path id="Path_16" class="st0" d="M274.5,20.7l-17.9,40.8h-6.6l6.1-13.7l-11.8-27.1h6.6l8.4,20.4h0.2l8.3-20.4H274.5z">
   </path>
  </g>
  <g id="Group_6">
   <path id="Path_17" class="st1" d="M15.1,62.7l9.6,5.5V31.8c0-1.7-0.9-3.3-2.4-4.1l0,0c-2.3-1.3-5.2-0.5-6.5,1.8
			c-0.4,0.7-0.6,1.6-0.6,2.4L15.1,62.7z">
   </path>
   <path id="Path_18" class="st1" d="M7.2,18.9L7.2,18.9c-2.3-1.3-5.2-0.5-6.5,1.8C0.2,21.4,0,22.2,0,23v25.3c0,3.4,1.8,6.6,4.8,8.3
			l4.8,2.7V23C9.6,21.3,8.7,19.8,7.2,18.9z">
   </path>
   <path id="Path_19" class="st1" d="M64,36.5v-11L32.5,43.6c-1.5,0.9-2.4,2.4-2.4,4.1l0,0c0,2.6,2.1,4.8,4.8,4.8
			c0.8,0,1.7-0.2,2.4-0.6L64,36.5z">
   </path>
   <path id="Path_20" class="st1" d="M30.1,65.2L30.1,65.2c0,2.6,2.1,4.8,4.8,4.8c0.8,0,1.7-0.2,2.4-0.6l21.9-12.7
			c3-1.7,4.8-4.9,4.8-8.3v-5.5L32.5,61.1C31,61.9,30.1,63.5,30.1,65.2z">
   </path>
   <path id="Path_21" class="st1" d="M16.9,7.2l-9.6,5.5L38.8,31c1.5,0.9,3.3,0.9,4.8,0l0,0c2.3-1.3,3.1-4.2,1.7-6.5
			c-0.4-0.7-1-1.3-1.7-1.7L16.9,7.2z">
   </path>
   <path id="Path_22" class="st1" d="M58.7,22.2L58.7,22.2c2.3-1.3,3.1-4.2,1.7-6.5c-0.4-0.7-1-1.3-1.7-1.7L36.8,1.3
			c-3-1.7-6.6-1.7-9.6,0L22.4,4L54,22.2C55.4,23.1,57.3,23.1,58.7,22.2z">
   </path>
  </g>
 </g>
</svg>