<svg width="242" height="468" viewBox="0 0 242 468" fill="none" xmlns="http://www.w3.org/2000/svg">
<path d="M155.245 467.678H123.855C172.359 389.813 196.611 311.867 196.611 233.839C196.611 203.342 193.123 173.088 186.148 143.077C180.632 118.745 172.927 95.3849 163.031 72.9987C156.705 58.3989 143.646 34.0661 123.855 0H155.245C185.742 40.717 208.291 81.5963 222.89 122.638C235.381 158.002 241.627 194.988 241.627 233.596C241.627 277.395 233.191 319.734 216.32 360.613C199.612 401.493 179.253 437.181 155.245 467.678Z" fill="white"/>
<path d="M0 154.271V104.389H49.8824V154.271H0ZM0 362.804V312.922H49.8824V362.804H0Z" fill="white"/>
</svg>
