<?xml version="1.0" encoding="UTF-8"?>
<svg id="svg1" width="190" height="50" fill="none" version="1.1" viewBox="0 0 190 50" xmlns="http://www.w3.org/2000/svg">
 <g id="g1" transform="translate(0,14)" clip-path="url(#clip0_2_9)">
  <path id="path1" d="m127.302 21.613h2.247c0.123 0 0.232-0.0451 0.316-0.1287 0.083-0.0902 0.129-0.1932 0.129-0.322v-8.3374c0-2.0216-0.445-3.58609-1.327-4.6999s-2.169-1.66749-3.863-1.66749c-1.249 0-2.44 0.34766-3.573 1.04942-0.122 0.09014-0.257 0.12877-0.405 0.12877-0.155 0-0.284-0.05795-0.387-0.1674-0.103-0.10944-0.161-0.25752-0.161-0.44423v-6.5734c0-0.128764-0.045-0.231775-0.128-0.32191-0.084-0.0901348-0.194-0.128764-0.316-0.128764h-2.247c-0.122 0-0.232 0.0450674-0.315 0.128764-0.09 0.090135-0.129 0.193146-0.129 0.32191v20.7052c0 0.1288 0.045 0.2318 0.129 0.3219 0.083 0.0901 0.193 0.1288 0.315 0.1288h2.247c0.122 0 0.232-0.0451 0.316-0.1288 0.083-0.0901 0.128-0.1931 0.128-0.3219v-8.2344c0-0.6503 0.097-1.1718 0.296-1.5645 0.2-0.3928 0.516-0.734 0.96-1.0108 0.882-0.53439 1.732-0.79836 2.536-0.79836 0.915 0 1.604 0.28972 2.074 0.87556 0.47 0.5859 0.708 1.5001 0.708 2.7556v7.9833c0 0.1288 0.045 0.2318 0.128 0.322 0.084 0.0901 0.194 0.1287 0.316 0.1287m-18.04-4.6612v-6.1807c0-0.3026 0.097-0.5472 0.29-0.7468 0.193-0.19318 0.438-0.28975 0.734-0.28975h3.2c0.135 0 0.251-0.05151 0.347-0.14808 0.097-0.09657 0.142-0.21246 0.142-0.34766v-2.02803c0-0.13521-0.045-0.25109-0.142-0.34767-0.096-0.09657-0.212-0.14807-0.347-0.14807h-3.2c-0.296 0-0.541-0.09658-0.734-0.28972-0.193-0.19315-0.29-0.44424-0.29-0.7404v-3.65689c0-0.1352-0.045-0.25109-0.142-0.34766-0.096-0.09657-0.212-0.14808-0.347-0.14808h-1.384c-0.374 0-0.664 0.12233-0.863 0.37342-0.2 0.25108-0.316 0.55368-0.328 0.9271l-0.046 2.94225c0 0.2704-0.09 0.49574-0.263 0.67601-0.181 0.18027-0.406 0.2704-0.683 0.2704h-0.663c-0.258 0-0.496 0.09014-0.708 0.26397-0.213 0.17383-0.316 0.42492-0.316 0.75971v1.5001c0 0.1352 0.045 0.25108 0.142 0.34766 0.096 0.09657 0.212 0.14808 0.348 0.14808h1.107c0.296 0 0.541 0.09657 0.734 0.28971 0.193 0.1932 0.29 0.4442 0.29 0.7468v6.2193c0 1.0173 0.173 1.8993 0.528 2.6333 0.347 0.7339 0.856 1.294 1.513 1.6739 0.656 0.3863 1.435 0.573 2.324 0.573 0.663 0 1.339-0.1095 2.034-0.3348 0.689-0.2253 1.352-0.5408 1.977-0.9464 0.122-0.0902 0.186-0.206 0.186-0.367 0-0.0386-0.01-0.0966-0.025-0.1738l-0.277-0.7597c-0.123-0.3477-0.303-0.6117-0.528-0.7855s-0.489-0.264-0.786-0.264c-0.276 0-0.573 0.0709-0.894 0.2189-0.451 0.2125-0.921 0.3219-1.398 0.3219-0.45 0-0.817-0.148-1.101-0.4377-0.283-0.2898-0.424-0.7598-0.424-1.3971m-12.4197-5.8588c0.3863-0.47 0.8177-0.8305 1.307-1.10092 0.4828-0.27041 1.0043-0.39917 1.5516-0.39917 0.3151 0 0.6111 0.02575 0.8821 0.07082 0.154 0.01931 0.264 0.02575 0.328 0.02575 0.387 0 0.715-0.10945 0.992-0.33479 0.277-0.22533 0.457-0.52793 0.534-0.92066l0.245-1.09449c0.019-0.10945 0.01-0.20602-0.039-0.29616-0.045-0.09013-0.116-0.15451-0.206-0.19958-0.708-0.26397-1.429-0.39273-2.163-0.39273-1.1526 0-2.1891 0.41204-3.0969 1.23613-0.1932 0.1674-0.3605 0.25109-0.5022 0.25109-0.2189 0-0.4249-0.18671-0.6181-0.55368l-0.0257-0.05795c-0.1159-0.20602-0.264-0.36053-0.4442-0.45711-0.1803-0.10301-0.4121-0.15451-0.6954-0.15451h-1.2683c-0.1223 0-0.2382 0.04506-0.3283 0.14164-0.0966 0.09013-0.1417 0.20602-0.1417 0.34122v13.9323c0 0.1287 0.0451 0.2382 0.1417 0.3347 0.0965 0.0966 0.206 0.1481 0.3283 0.1481h2.1761c0.1352 0 0.2447-0.0515 0.3412-0.1481 0.0902-0.0965 0.1352-0.206 0.1352-0.3347v-8.1315c0-0.8048 0.1932-1.4421 0.5795-1.9121m-18.0205 3.0903c0-0.8756 0.1931-1.6611 0.5859-2.3564 0.3862-0.6953 0.9271-1.2361 1.6224-1.6224 0.6889-0.38629 1.4679-0.57944 2.337-0.57944 0.8692 0 1.6418 0.19315 2.3371 0.57944 0.6889 0.3863 1.2297 0.9271 1.6224 1.6224 0.3928 0.6953 0.5859 1.4808 0.5859 2.3564s-0.1931 1.6611-0.5859 2.3499c-0.3863 0.6954-0.9271 1.2362-1.6224 1.6225-0.6889 0.3863-1.4679 0.5794-2.3371 0.5794-0.8691 0-1.6417-0.1996-2.337-0.5923-0.6889-0.3927-1.2297-0.94-1.6224-1.6353-0.3863-0.6953-0.5859-1.4744-0.5859-2.3371m4.5389 7.6937c1.4679 0 2.7877-0.3284 3.9466-0.9915s2.0731-1.5709 2.7298-2.7427c0.6567-1.1653 0.985-2.4851 0.985-3.9659s-0.3283-2.8006-0.985-3.9724c-0.6567-1.17173-1.5709-2.08595-2.7298-2.74909-1.1653-0.66313-2.4787-0.99148-3.9466-0.99148s-2.7877 0.32835-3.953 0.99148c-1.1654 0.66314-2.0796 1.57736-2.7298 2.74909-0.6503 1.1718-0.9786 2.498-0.9786 3.9724 0 1.4743 0.3283 2.8006 0.985 3.9659s1.5709 2.0796 2.7298 2.7427c1.1653 0.6631 2.4787 0.9915 3.9466 0.9915zm-13.2949-20.5636 0.0451 12.709c0 0.1674-0.0515 0.3026-0.161 0.4056-0.1094 0.103-0.2317 0.1609-0.3734 0.1609-0.0965 0-0.1867-0.0257-0.2832-0.0772-0.0902-0.0515-0.1674-0.1288-0.2383-0.2254l-8.3567-12.5158c-0.2382-0.36698-0.4958-0.62451-0.7726-0.772585-0.2769-0.148078-0.6245-0.218898-1.0623-0.218898h-1.7576c-0.1417 0-0.264 0.051505-0.367 0.154516-0.103 0.103007-0.1545 0.231777-0.1545 0.386297v19.7781c0 0.1546 0.0515 0.2833 0.1545 0.3863s0.2253 0.1546 0.367 0.1546h2.131c0.1545 0 0.2833-0.0516 0.3798-0.1546 0.1031-0.103 0.1546-0.2317 0.1546-0.3863l-0.0451-13.2755c0-0.16739 0.0515-0.30259 0.161-0.40561 0.103-0.10301 0.2382-0.16095 0.3862-0.16095 0.0966 0 0.1868 0.02575 0.2833 0.07726 0.0902 0.0515 0.1674 0.12876 0.2382 0.22533l8.8075 13.1919c0.2318 0.3476 0.4635 0.5859 0.7082 0.7082 0.2382 0.1223 0.5794 0.1803 1.0237 0.1803h1.4099c0.1417 0 0.264-0.0516 0.367-0.1546s0.1545-0.2317 0.1545-0.3863v-19.7845c0-0.15452-0.0515-0.28328-0.1545-0.386295-0.103-0.103011-0.2253-0.154516-0.367-0.154516h-2.1439c-0.1545 0-0.2833 0.051505-0.3799 0.154516-0.0965 0.103015-0.1545 0.231775-0.1545 0.386295zm-25.5338 13.0116 4.4938 6.3416c0.2382 0.3412 0.5151 0.5859 0.8177 0.7339 0.3026 0.1481 0.7017 0.2254 1.2039 0.2254h1.8735c0.0966 0 0.1739-0.0322 0.2382-0.0902 0.0644-0.0579 0.0902-0.1287 0.0902-0.2189 0-0.0901-0.0258-0.1609-0.0708-0.2189l-4.6227-6.2836c-0.1931-0.2704-0.2897-0.5602-0.2897-0.8628 0-0.3025 0.0966-0.5858 0.2897-0.8562l4.3072-5.84591c0.045-0.07726 0.0708-0.14808 0.0708-0.2189 0-0.07726-0.0322-0.14808-0.103-0.21246-0.0644-0.06438-0.1481-0.09657-0.2447-0.09657h-2.1052c-0.425 0-0.7662 0.07082-1.0237 0.21246-0.2576 0.14164-0.5151 0.39917-0.7662 0.76614l-4.1655 5.91674c-0.0708 0.0965-0.103 0.2124-0.103 0.3476 0 0.1288 0.0322 0.2447 0.103 0.3477m-3.5732 7.3009h2.189c0.1352 0 0.2447-0.0515 0.3412-0.1481 0.0902-0.0966 0.1352-0.206 0.1352-0.3348v-20.6279c0-0.135202-0.045-0.251089-0.1352-0.341224-0.0901-0.0901345-0.206-0.135202-0.3412-0.135202h-2.189c-0.1223 0-0.2382 0.0450673-0.3283 0.135202-0.0966 0.090135-0.1417 0.206022-0.1417 0.341224v20.6537c0 0.1288 0.0451 0.2382 0.1417 0.3348 0.0965 0.0965 0.206 0.1481 0.3283 0.1481m-14.6662-7.404c0-0.8756 0.1803-1.661 0.5473-2.3563 0.3669-0.6954 0.8691-1.2362 1.5194-1.6225 0.6502-0.38626 1.3778-0.57941 2.1825-0.57941 0.5795 0 1.1267 0.10945 1.6418 0.32835 0.5215 0.21886 0.9657 0.49576 1.3391 0.82406 0.4249 0.3477 0.6374 0.9207 0.6374 1.7061v3.0453c0 0.4442-0.058 0.8241-0.1803 1.1396-0.1223 0.309-0.3154 0.5858-0.5859 0.8305-0.8755 0.7983-1.8477 1.1975-2.91 1.1975-0.8048 0-1.5259-0.1931-2.1632-0.573-0.631-0.3863-1.1332-0.9207-1.4937-1.6031-0.3605-0.6825-0.5408-1.4615-0.5408-2.3242m3.5024 7.6936c1.4099 0 2.6461-0.412 3.7019-1.2361 0.1352-0.1094 0.2575-0.1609 0.3606-0.1609 0.1609 0 0.3026 0.1352 0.4184 0.4056l0.0258 0.045c0.0966 0.2125 0.2189 0.3734 0.367 0.4893 0.148 0.1095 0.3541 0.1674 0.6116 0.1674h1.5452c0.1352 0 0.2446-0.0515 0.3412-0.148 0.0901-0.0966 0.1352-0.2061 0.1352-0.3348v-13.9516c0-0.1352-0.0451-0.25109-0.1352-0.34122-0.0901-0.09014-0.206-0.14164-0.3412-0.14164h-2.1182c-0.1416 0-0.264 0.04506-0.3541 0.14164-0.0901 0.09013-0.1481 0.20602-0.1674 0.34122v0.01288c-6e-3 0.12876-0.0515 0.2189-0.1223 0.28328s-0.1674 0.09657-0.2962 0.09657c-0.1802 0-0.367-0.06438-0.5472-0.18671-0.8756-0.59231-1.8285-0.88847-2.865-0.88847-1.3842 0-2.6204 0.32835-3.7084 0.99148-1.0881 0.66314-1.9444 1.57736-2.556 2.74907-0.6116 1.1718-0.9206 2.4981-0.9206 3.9724 0 1.4744 0.2832 2.8006 0.8498 3.9659s1.352 2.0796 2.3564 2.7298c1.0043 0.6567 2.1439 0.9851 3.4251 0.9851m-26.5318-10.7196c0-1.39711 0.32191-2.66543 0.97217-3.80499 0.65026-1.13312 1.53229-2.03447 2.65897-2.69117 1.12669-0.65669 2.36926-0.98504 3.73416-0.98504s2.6075 0.32835 3.7341 0.98504c1.1203 0.6567 2.0088 1.55161 2.659 2.69117 0.6503 1.13956 0.9722 2.40788 0.9722 3.80499 0 1.3971-0.3219 2.6525-0.9722 3.7985-0.6502 1.1396-1.5323 2.0409-2.659 2.6912-1.1266 0.6502-2.3692 0.9786-3.7341 0.9786s-2.60747-0.3284-3.73416-0.9786c-1.12668-0.6503-2.00871-1.5452-2.65897-2.6912-0.65026-1.1395-0.97217-2.4079-0.97217-3.7985zm7.3524 10.6809c1.9701 0 3.7664-0.4699 5.3888-1.4164 1.6224-0.9399 2.9036-2.2276 3.85-3.8629 0.94-1.6288 1.41-3.4315 1.41-5.4081 0-1.97648-0.47-3.79205-1.41-5.42092-0.9399-1.6353-2.2276-2.92294-3.85-3.86291-1.6224-0.939979-3.4187-1.41641-5.3888-1.41641-1.97007 0-3.75345 0.469989-5.37587 1.41641-1.62243 0.93997-2.90363 2.22761-3.8436 3.86291-0.933542 1.64174-1.40353 3.45087-1.40353 5.42742 0 1.9765 0.469988 3.7728 1.40353 5.4081 0.93353 1.6288 2.21473 2.9165 3.8436 3.8629 1.62242 0.94 3.41868 1.4164 5.37587 1.4164" fill="#006d6b"/>
 </g>
 <defs id="defs1">
  <clipPath id="clip0_2_9">
   <rect id="rect1" width="130" height="21.9027" fill="#ffffff"/>
  </clipPath>
  <clipPath id="clip0_1_6">
   <rect id="rect2" width="50" height="50" fill="#ffffff"/>
  </clipPath>
 </defs>
 <g id="g2" transform="translate(140)" clip-path="url(#clip0_1_6)">
  <path id="path1-8" d="m50 25v-25h-25v9.99901h14.9985v15.001z" fill="#006d6b"/>
  <path id="path2" d="m39.9985 25c0 8.2855-6.7155 14.9985-14.9985 14.9985s-15.001-6.7155-15.001-14.9985 6.71549-15.001 15.001-15.001 14.9985 6.71549 14.9985 15.001zm9.999 0c0.0025-13.8074-11.1901-25-24.9975-25s-25 11.1926-25 25 11.1926 25 25 25 25-11.1926 25-25" fill="#2adaa5"/>
 </g>
</svg>