<svg version="1.1" id="Layer_1" xmlns:x="ns_extend;" xmlns:i="ns_ai;" xmlns:graph="ns_graphs;" xmlns="http://www.w3.org/2000/svg" xmlns:xlink="http://www.w3.org/1999/xlink" x="0px" y="0px" viewBox="0 0 159.1 45" style="enable-background:new 0 0 159.1 45;" xml:space="preserve">
 <style type="text/css">
  .st0{fill:#001A3E;}
	.st1{fill:#2A4AFC;}
 </style>
 <metadata>
  <sfw xmlns="ns_sfw;">
   <slices>
   </slices>
   <sliceSourceBounds bottomLeftOrigin="true" height="45" width="159.1" x="112.9" y="-220.6">
   </sliceSourceBounds>
  </sfw>
 </metadata>
 <g>
  <g id="ravelinSvg" transform="translate(49.635 7.122)">
   <g>
    <path class="st0" d="M13.5,16.7H8.9v8.6H5V1.7h9.4c4.2,0,7.6,3.4,7.6,7.5c0,0,0,0,0,0.1c0,3-1.9,5.7-4.7,6.8l5.4,9.2h-4.2
				L13.5,16.7z M8.9,13.3h5.6c2.2-0.1,3.8-2,3.7-4.2c-0.1-2-1.7-3.6-3.7-3.7H8.9V13.3z">
    </path>
    <path class="st0" d="M40.9,8.5v16.9h-3.6v-2.4c-1.4,1.9-3.6,3-5.9,2.9c-4.9-0.3-8.7-4.5-8.4-9.4c0.2-4.5,3.9-8.1,8.4-8.4
				c2.3-0.1,4.5,1,5.9,2.8V8.5H40.9z M37.3,16.9c0-2.9-2.5-5.3-5.4-5.3c-2.9,0-5.3,2.5-5.3,5.4c0,2.9,2.4,5.3,5.3,5.3
				c2.9,0.1,5.3-2.2,5.3-5.1C37.3,17.1,37.3,17,37.3,16.9L37.3,16.9z">
    </path>
    <path class="st0" d="M59.9,8.5l-6.6,16.9h-4.2L42.5,8.5h4l4.7,12.8l4.7-12.8H59.9z">
    </path>
    <path class="st0" d="M69.1,22.4c1.7,0.1,3.3-0.7,4.3-2.1l3,1.8c-1.7,2.4-4.5,3.8-7.4,3.7c-5.6,0-9.2-3.8-9.2-8.9
				c-0.2-4.7,3.6-8.7,8.3-8.9c0.2,0,0.4,0,0.6,0c5,0,8.5,4,8.5,8.9c0,0.5-0.1,1-0.1,1.5H63.7C64.3,21.1,66.4,22.4,69.1,22.4z
				 M73.6,15.5c-0.3-2.4-2.4-4.2-4.8-4.1c-2.5-0.1-4.7,1.7-5.1,4.1H73.6z">
    </path>
    <path class="st0" d="M79.8,0.7h3.6v24.6h-3.6L79.8,0.7z">
    </path>
    <path class="st0" d="M86.5,3.6c0-1.3,1-2.3,2.3-2.3c1.3,0,2.3,1,2.3,2.3c0,1.3-1,2.3-2.3,2.3l0,0C87.5,5.9,86.5,4.9,86.5,3.6z
				 M87,8.5h3.6v16.9H87L87,8.5z">
    </path>
    <path class="st0" d="M109.5,15v10.4h-3.6v-10c0.2-1.9-1.2-3.7-3.1-3.9c-0.2,0-0.5,0-0.7,0c-2.4,0-4.3,1.4-4.3,4.9v9h-3.6V8.5h3.6
				v2.2c1.1-1.7,3.1-2.7,5.2-2.6C106.8,8,109.5,10.6,109.5,15z">
    </path>
   </g>
  </g>
  <g id="ravelinLogoSvg">
   <path class="st1" d="M31.7,17.8l-8.5-6.1l-8.5,6.1l3.2,9.9h10.4L31.7,17.8z M19.7,25.3l-2.2-6.5l5.6-4l5.6,4l-2.1,6.5L19.7,25.3z">
   </path>
   <path class="st1" d="M39.6,18.6l3.2-4.4l-5.2-1.7V0.8L26.4,4.4L23.2,0L20,4.4L8.8,0.8v11.7l-5.2,1.7l3.2,4.4L0,28.1l11.1,3.7v5.5
			l5.2-1.7l6.9,9.4l6.9-9.5l5.2,1.7v-5.5l11.1-3.6L39.6,18.6z M34.4,25.1l0.5-1.7l1,0.3l2.2-3.1l4.4,6.2l-7.2,2.4v-3.8L34.4,25.1z
			 M18.7,34.8l3.6-1.2v-1h1.7v1l3.6,1.2l-4.5,6.1L18.7,34.8z M19.9,30.2v1.7l-6.4,2.1v-6.8l1.6-0.5l-2-6.2L11.5,21l-4-5.5l6.4-2.1
			l1,1.4l5.3-3.8l-1-1.4l4-5.4l4,5.4l-1,1.4l5.3,3.8l1-1.4l6.4,2.1l-4,5.5l-1.6-0.5l-2,6.2l1.6,0.5v6.8l-6.4-2.1v-1.7L19.9,30.2z
			 M35.2,11.7l-3.6-1.2L31,11.4l-1.4-1l0.6-0.8l-2.3-3.1l7.3-2.3V11.7z M16.3,9.5l0.4,0.6l0.2,0.2l-1.4,1l-0.6-0.8l-3.6,1.2V4.1
			l7.3,2.3L16.3,9.5z M12.1,25.1l-1,0.3v3.8l-7.2-2.4l4.5-6.2l2.2,3.1l1-0.3L12.1,25.1z">
   </path>
  </g>
 </g>
</svg>