<svg width="636" height="735" viewBox="0 0 636 735" fill="none" xmlns="http://www.w3.org/2000/svg">
<path d="M74.4951 226.607V507.788L318 648.375L561.505 507.788V226.607L318 86.02L74.4951 226.607ZM633 549.085L631.5 549.951L319.5 730.072L318 730.938L316.5 730.072L4.5 549.951L3 549.085V185.317L4.5 184.451L316.5 4.33057L318 3.46436L319.5 4.33057L631.5 184.451L633 185.317V549.085Z" fill="#1100FF" stroke="#1100FF" stroke-width="6"/>
<path d="M416 423.917L414.498 424.783L319.498 479.528L318 480.391L316.502 479.528L221.502 424.783L220 423.917V310.94L221.502 310.074L316.502 255.329L318 254.465L319.498 255.329L414.498 310.074L416 310.94V423.917Z" fill="#1100FF" stroke="#1100FF" stroke-width="6"/>
</svg>
