<svg width="671" height="671" viewBox="0 0 671 671" fill="none" xmlns="http://www.w3.org/2000/svg">
<path d="M603.11 139.842C603.002 139.662 602.858 139.518 602.75 139.338C542.317 57.0578 444.92 3.5 335.249 3.5C152.332 3.5 3.5 152.296 3.5 335.213C3.5 518.13 152.26 666.962 335.141 667.034C335.177 667.034 335.213 667.034 335.249 667.034C335.249 667.034 335.249 667.034 335.285 667.034C335.321 667.034 335.393 667.034 335.429 667.034C440.925 666.998 534.975 617.399 595.767 540.374C595.803 540.338 595.875 540.302 595.911 540.266C597.063 539.078 598.035 537.782 598.899 536.415C641.623 480.553 667.07 410.834 667.07 335.249C666.998 262.219 643.242 194.696 603.11 139.842ZM575.107 489.588C556.355 473.93 536.307 460.217 515.179 448.627C524.861 415.226 530.836 377.577 530.836 335.213C530.836 296.736 525.869 262.147 517.698 231.085C539.51 218.847 560.206 204.378 579.462 187.749C605.557 230.833 620.603 281.295 620.603 335.213C620.639 392.082 603.866 445.064 575.107 489.588ZM187.605 335.249C187.605 304.943 191.132 277.336 197.035 252.213C233.46 266.646 272.153 275.32 312.069 277.768V403.384C273.161 405.759 235.332 414.074 199.663 427.931C192.176 400.216 187.605 369.442 187.605 335.249ZM358.428 70.1593C389.203 94.4187 433.798 138.834 460.901 207.329C428.579 220.719 394.062 228.781 358.428 231.265V70.1593ZM312.069 70.5192V231.265C276.904 228.817 242.782 220.899 210.785 207.797C237.455 139.518 281.439 94.9946 312.069 70.5192ZM312.069 449.851V599.655C283.023 576.115 241.847 534.363 214.888 471.735C245.734 459.569 278.416 452.191 312.069 449.851ZM358.428 600.806V449.851C392.73 452.263 426.06 459.857 457.446 472.455C430.163 536.307 387.979 577.843 358.428 600.806ZM358.428 403.384V277.768C398.849 275.32 438.045 266.466 474.83 251.673C480.877 276.94 484.477 304.691 484.477 335.249C484.477 369.838 479.941 400.828 472.527 428.579C436.354 414.326 397.949 405.795 358.428 403.384ZM552.144 150.1C536.739 163.742 520.254 175.835 502.905 186.201C481.021 132.211 449.563 91.7192 420.481 62.8887C472.239 79.1216 517.698 109.788 552.144 150.1ZM252.033 62.2768C222.878 91.3953 191.06 132.427 169.033 187.029C151.144 176.483 134.155 164.137 118.318 150.136C153.232 109.284 199.411 78.3657 252.033 62.2768ZM90.9994 187.785C110.688 204.81 131.888 219.567 154.239 231.985C146.141 262.867 141.246 297.168 141.246 335.249C141.246 377.181 147.149 414.578 156.759 447.835C135.091 459.605 114.539 473.571 95.3545 489.623C66.596 445.1 49.8592 392.118 49.8592 335.285C49.8592 281.331 64.9043 230.869 90.9994 187.785ZM123.573 526.445C138.978 513.379 155.391 501.861 172.704 491.963C194.516 542.353 224.462 580.686 252.069 608.257C202.002 592.996 157.803 564.345 123.573 526.445ZM420.481 607.681C448.015 580.398 477.602 542.569 499.27 492.791C516.042 502.473 531.951 513.775 546.961 526.445C513.163 563.805 469.647 592.24 420.481 607.681Z" fill="#1100FF" stroke="#1100FF" stroke-width="7"/>
</svg>
